<svg width="51" height="51" viewBox="0 0 51 51" fill="none" xmlns="http://www.w3.org/2000/svg">
<path d="M14.6077 33.6425C9.19868 33.6425 0.750977 34.4193 0.750977 26.6177C0.750977 22.6494 3.6375 19.2073 7.77577 19.2073C21.2744 19.2073 32.211 30.1439 32.211 43.6425C32.211 47.5149 29.1049 50.7775 25.1862 50.7775C17.5035 50.7775 18.1614 42.5854 18.1614 37.2238C18.1614 35.2403 16.5636 33.6425 14.6077 33.6425Z" fill="url(#paint0_linear_3_7)"/>
<path d="M33.6438 14.6067C33.6438 9.1977 34.4205 0.75 26.619 0.75C22.6506 0.75 19.2085 3.63652 19.2085 7.77479C19.2085 21.2734 30.1451 32.2101 43.6438 32.2101C47.5161 32.2101 50.7787 29.104 50.7787 25.1853C50.7787 17.5025 42.5866 18.1605 37.225 18.1605C35.2416 18.1605 33.6438 16.5627 33.6438 14.6067Z" fill="url(#paint1_linear_3_7)"/>
<defs>
<linearGradient id="paint0_linear_3_7" x1="2.12839" y1="20.5847" x2="31.1917" y2="52.6784" gradientUnits="userSpaceOnUse">
<stop stop-color="#584099" stop-opacity="0.2"/>
<stop offset="1" stop-color="#FF77B0"/>
</linearGradient>
<linearGradient id="paint1_linear_3_7" x1="16.0405" y1="-2.96901" x2="56.6741" y2="22.7886" gradientUnits="userSpaceOnUse">
<stop stop-color="#584099" stop-opacity="0.2"/>
<stop offset="1" stop-color="#FF77B0"/>
</linearGradient>
</defs>
</svg>
