<svg width="88" height="64" viewBox="0 0 88 64" fill="none" xmlns="http://www.w3.org/2000/svg">
<path fill-rule="evenodd" clip-rule="evenodd" d="M44 0L88 64H0L44 0ZM6.9153 63.3H81.0847L44 55.7145L6.9153 63.3ZM82.5766 62.8907L44 55L5.42343 62.8907L44 49.7396L82.5766 62.8907ZM44 43.7756L82.312 62.0609L44 49L5.68803 62.0609L44 43.7756ZM81.9772 61.1255L44 43L6.02276 61.1255L44 37.8213L81.9772 61.1255ZM44 31.875L81.5833 60.0625L44 37L6.41667 60.0625L44 31.875ZM81.1404 58.8553L44 31L6.85956 58.8553L44 25.9354L81.1404 58.8553ZM44 20.0013L80.6574 57.4918L44 25L7.3426 57.4918L44 20.0013ZM80.1417 55.9631L44 19L7.85835 55.9631L44 14.0716L80.1417 55.9631ZM44 7.1582L80.7199 55.5617L44 13L7.2801 55.5617L44 7.1582ZM78.939 52.056L44 6L9.06101 52.0559L44 1.23559L78.939 52.056Z" fill="url(#paint0_linear_5_6)"/>
<path fill-rule="evenodd" clip-rule="evenodd" d="M44 0L7.62939e-06 64H88L44 0ZM81.0847 63.3H6.91531L44 55.7145L81.0847 63.3ZM5.42343 62.8907L44 55L82.5766 62.8907L44 49.7396L5.42343 62.8907ZM44 43.7756L5.68805 62.0609L44 49L82.312 62.0609L44 43.7756ZM6.02277 61.1255L44 43L81.9772 61.1255L44 37.8213L6.02277 61.1255ZM44 31.875L6.41667 60.0625L44 37L81.5833 60.0625L44 31.875ZM6.85957 58.8553L44 31L81.1404 58.8553L44 25.9354L6.85957 58.8553ZM44 20.0013L7.34263 57.4918L44 25L80.6574 57.4918L44 20.0013ZM7.85829 55.9631L44 19L80.1416 55.9631L44 14.0716L7.85829 55.9631ZM44 7.1582L7.28012 55.5617L44 13L80.7199 55.5617L44 7.1582ZM9.061 52.056L44 6L78.939 52.0559L44 1.23559L9.061 52.056Z" fill="url(#paint1_linear_5_6)"/>
<defs>
<linearGradient id="paint0_linear_5_6" x1="2.5" y1="64" x2="67" y2="33.5" gradientUnits="userSpaceOnUse">
<stop stop-color="white"/>
<stop offset="1" stop-color="white" stop-opacity="0"/>
</linearGradient>
<linearGradient id="paint1_linear_5_6" x1="85.5" y1="64" x2="23.5" y2="28" gradientUnits="userSpaceOnUse">
<stop offset="0.306" stop-color="white"/>
<stop offset="1" stop-color="#0D0101" stop-opacity="0"/>
</linearGradient>
</defs>
</svg>
